HIERARCHY
ROOT Hips
{
	OFFSET -0.001795 -0.223333 0.028219
	CHANNELS 6 Xposition Yposition Zposition Zrotation Yrotation Xrotation 
	JOINT LeftUpLeg
	{
		OFFSET 0.069520 -0.091406 -0.006815
		CHANNELS 3 Zrotation Yrotation Xrotation
		JOINT LeftLeg
		{
			OFFSET 0.034277 -0.375199 -0.004496
			CHANNELS 3 Zrotation Yrotation Xrotation
			JOINT LeftFoot
			{
				OFFSET -0.013596 -0.397961 -0.043693
				CHANNELS 3 Zrotation Yrotation Xrotation
				JOINT LeftToe
				{
					OFFSET 0.026358 -0.055791 0.119288
					CHANNELS 3 Zrotation Yrotation Xrotation
					End Site
					{
						OFFSET 0.000000 0.000000 0.000000
					}
				}
			}
		}
	}
	JOINT RightUpLeg
	{
		OFFSET -0.067670 -0.090522 -0.004320
		CHANNELS 3 Zrotation Yrotation Xrotation
		JOINT RightLeg
		{
			OFFSET -0.038290 -0.382569 -0.008850
			CHANNELS 3 Zrotation Yrotation Xrotation
			JOINT RightFoot
			{
				OFFSET 0.015774 -0.398415 -0.042312
				CHANNELS 3 Zrotation Yrotation Xrotation
				JOINT RightToe
				{
					OFFSET -0.025372 -0.048144 0.123348
					CHANNELS 3 Zrotation Yrotation Xrotation
					End Site
					{
						OFFSET 0.000000 0.000000 0.000000
					}
				}
			}
		}
	}
	JOINT Spine
	{
		OFFSET -0.002533 0.108963 -0.026696
		CHANNELS 3 Zrotation Yrotation Xrotation
		JOINT Spine1
		{
			OFFSET 0.005487 0.135180 0.001092
			CHANNELS 3 Zrotation Yrotation Xrotation
			JOINT Spine2
			{
				OFFSET 0.001457 0.052922 0.025425
				CHANNELS 3 Zrotation Yrotation Xrotation
				JOINT Neck
				{
					OFFSET -0.002778 0.213870 -0.042857
					CHANNELS 3 Zrotation Yrotation Xrotation
					JOINT Head
					{
						OFFSET 0.005152 0.064970 0.051349
						CHANNELS 3 Zrotation Yrotation Xrotation
						End Site
						{
							OFFSET 0.000000 0.000000 0.000000
						}
					}
				}
				JOINT LeftShoulder
				{
					OFFSET 0.078845 0.121749 -0.034090
					CHANNELS 3 Zrotation Yrotation Xrotation
					JOINT LeftArm
					{
						OFFSET 0.090977 0.030469 -0.008868
						CHANNELS 3 Zrotation Yrotation Xrotation
						JOINT LeftForeArm
						{
							OFFSET 0.259612 -0.012772 -0.027456
							CHANNELS 3 Zrotation Yrotation Xrotation
							JOINT LeftHand
							{
								OFFSET 0.249234 0.008986 -0.001171
								CHANNELS 3 Zrotation Yrotation Xrotation
								End Site
								{
									OFFSET 0.000000 0.000000 0.000000
								}
							}
						}
					}
				}
				JOINT RightShoulder
				{
					OFFSET -0.081759 0.118833 -0.038615
					CHANNELS 3 Zrotation Yrotation Xrotation
					JOINT RightArm
					{
						OFFSET -0.096012 0.032551 -0.009143
						CHANNELS 3 Zrotation Yrotation Xrotation
						JOINT RightForeArm
						{
							OFFSET -0.253742 -0.013329 -0.021401
							CHANNELS 3 Zrotation Yrotation Xrotation
							JOINT RightHand
							{
								OFFSET -0.255298 0.007772 -0.005559
								CHANNELS 3 Zrotation Yrotation Xrotation
								End Site
								{
									OFFSET 0.000000 0.000000 0.000000
								}
							}
						}
					}
				}
			}
		}
	}
}
MOTION
Frames: 14
Frame Time: 0.050000
0.000000 0.934278 0.000000 -4.126901 -4.225022 8.610455 5.719407 -0.813037 -21.538818 0.849891 -0.429555 9.519959 6.796776 15.094401 11.403670 0.000000 0.000000 0.000000 -3.945133 1.655111 -19.934739 4.529502 -0.411846 3.272805 -4.684382 -15.410125 19.415094 0.000000 0.000000 0.000000 -3.192938 -0.010031 25.842741 2.943785 -0.327685 -20.543105 1.501998 2.947549 24.158148 -0.118733 2.058160 -32.696634 0.000000 0.000000 0.000000 -24.796568 -21.772143 11.765929 -55.046535 -43.140573 12.661257 16.909096 -48.470161 -4.343015 0.000000 0.000000 0.000000 13.476262 28.146439 13.232073 45.827744 47.354635 12.465165 -26.653750 45.479533 -8.261917 0.000000 0.000000 0.000000 
0.001366 0.933192 0.001781 -4.489841 -4.957731 9.444753 6.435193 -0.668751 -22.328663 0.189765 -0.293862 9.832764 7.275949 15.784937 11.145894 0.000000 0.000000 0.000000 -3.918108 1.698251 -19.993491 5.011516 -0.456370 1.812271 -4.315366 -14.964113 19.463441 0.000000 0.000000 0.000000 -3.504972 0.137252 26.449861 3.146686 -0.327264 -21.554982 1.572919 2.604023 25.014910 0.222773 1.861670 -34.581783 0.000000 0.000000 0.000000 -25.244683 -20.215351 11.214354 -54.497661 -43.049954 12.273885 18.153677 -49.580849 -4.801186 0.000000 0.000000 0.000000 10.459629 28.208151 12.406980 49.222305 48.956517 14.568595 -26.817841 46.714340 -8.572434 0.000000 0.000000 0.000000 
0.002597 0.932883 0.003422 -4.176102 -4.402296 9.592873 6.218009 -0.755278 -23.064817 -0.206290 -0.241096 10.751612 7.053873 15.476569 10.928955 0.000000 0.000000 0.000000 -4.314434 1.676986 -20.559579 4.856719 -0.446584 2.788157 -4.685327 -15.424791 19.254064 0.000000 0.000000 0.000000 -2.783146 -0.097719 27.025802 1.794392 -0.010418 -20.953786 1.339420 2.671731 23.463905 0.922446 1.482581 -32.227690 0.000000 0.000000 0.000000 -26.130711 -20.322702 11.195278 -53.446846 -42.816366 11.989132 16.294244 -47.421225 -3.971912 0.000000 0.000000 0.000000 12.502864 27.777910 12.772086 47.483202 48.454268 13.729877 -24.111550 46.948875 -7.544660 0.000000 0.000000 0.000000 
0.003418 0.932816 0.005098 -4.277584 -4.536133 9.788594 6.068427 -0.777830 -23.116033 0.152811 -0.313636 10.730189 7.144095 15.606276 10.817702 0.000000 0.000000 0.000000 -4.324699 1.692426 -20.679399 4.957646 -0.455772 2.789349 -4.627379 -15.354543 19.229818 0.000000 0.000000 0.000000 -3.502284 0.123259 27.226412 2.561437 -0.209193 -20.824808 1.110422 2.816484 23.756350 1.313370 1.415020 -33.890835 0.000000 0.000000 0.000000 -25.219828 -20.730270 11.263045 -55.098465 -43.776393 13.112562 17.255818 -46.482171 -4.288280 0.000000 0.000000 0.000000 11.456233 28.207145 12.745017 47.813198 49.527911 14.425352 -23.071400 46.169332 -6.994707 0.000000 0.000000 0.000000 
0.003955 0.932274 0.006874 -4.278832 -4.900142 9.681481 6.350410 -0.706285 -23.270167 -0.429834 -0.197470 11.539957 7.374045 15.936638 10.597456 0.000000 0.000000 0.000000 -4.428258 1.735780 -21.226956 5.095423 -0.467496 4.090663 -4.543028 -15.225234 18.790258 0.000000 0.000000 0.000000 -3.688816 0.206889 27.477840 2.374293 -0.228246 -19.634337 1.217169 3.213709 23.271203 1.747769 1.260961 -33.887817 0.000000 0.000000 0.000000 -24.066178 -21.082897 11.184081 -55.625844 -43.826174 13.423097 19.143869 -45.934717 -5.082647 0.000000 0.000000 0.000000 11.459007 27.701294 12.533362 49.685437 49.665262 15.393546 -23.607392 46.457906 -7.235728 0.000000 0.000000 0.000000 
0.004194 0.932556 0.008585 -4.383999 -4.942001 9.991164 6.639454 -0.655050 -23.447523 -0.765366 -0.121723 11.483848 7.414070 16.001113 10.610005 0.000000 0.000000 0.000000 -4.418085 1.726630 -21.032402 5.226256 -0.481328 3.340237 -4.487289 -15.164452 18.946423 0.000000 0.000000 0.000000 -3.619284 0.195819 27.655120 2.291982 -0.175116 -20.251051 1.301780 3.362368 23.782305 2.226075 1.127750 -35.001294 0.000000 0.000000 0.000000 -23.684478 -21.600587 11.424914 -54.668705 -43.675771 12.946212 19.883590 -46.402052 -5.461151 0.000000 0.000000 0.000000 11.969029 27.902520 12.785942 49.611233 48.741575 14.855037 -22.990175 47.979721 -7.218802 0.000000 0.000000 0.000000 
0.004335 0.932481 0.010138 -4.375008 -5.080821 10.013691 6.777464 -0.620047 -23.397228 -1.060078 -0.054868 11.579439 7.503028 16.129607 10.519605 0.000000 0.000000 0.000000 -4.308033 1.757122 -21.167276 4.997149 -0.452051 3.698534 -4.439433 -15.089398 18.750782 0.000000 0.000000 0.000000 -3.706153 0.233878 27.750529 2.422988 -0.246862 -19.540900 1.041609 3.472991 23.408703 2.122493 1.200210 -35.122797 0.000000 0.000000 0.000000 -23.066927 -21.731420 11.368749 -54.363906 -43.841167 12.977405 21.337124 -46.538344 -6.121457 0.000000 0.000000 0.000000 12.191993 28.165142 12.982695 51.118998 48.332860 15.334460 -23.534108 48.905719 -7.583521 0.000000 0.000000 0.000000 
0.004475 0.932886 0.011541 -4.256096 -4.942894 10.236417 6.616047 -0.662549 -23.369955 -1.023427 -0.061920 11.189330 7.433679 16.034389 10.583296 0.000000 0.000000 0.000000 -4.382925 1.746949 -21.205222 4.842473 -0.435334 3.514719 -4.497084 -15.170734 18.826622 0.000000 0.000000 0.000000 -3.701243 0.231877 28.109982 2.361458 -0.212057 -19.819529 1.019584 3.333122 23.722253 1.859905 1.335015 -35.565936 0.000000 0.000000 0.000000 -22.559416 -21.974837 11.468624 -53.613442 -44.124899 12.834946 22.276133 -47.078990 -6.592729 0.000000 0.000000 0.000000 12.232184 28.054898 12.940505 52.180264 48.025591 15.591432 -23.124957 50.137135 -7.577968 0.000000 0.000000 0.000000 
0.004783 0.933281 0.012860 -4.200002 -5.176593 10.268945 6.589971 -0.650420 -22.923940 -1.132630 -0.027543 10.563372 7.539355 16.186295 10.647087 0.000000 0.000000 0.000000 -4.375790 1.761251 -21.260388 4.695273 -0.414040 3.651217 -4.372193 -15.008215 18.794509 0.000000 0.000000 0.000000 -3.763889 0.275236 28.376937 2.384910 -0.235085 -19.557613 1.033637 3.562632 23.581523 1.534804 1.502337 -35.605852 0.000000 0.000000 0.000000 -22.174072 -22.229176 11.515121 -53.041981 -44.534580 12.870692 22.995060 -47.061220 -6.929767 0.000000 0.000000 0.000000 12.374904 28.289369 13.114106 52.697039 47.652732 15.643196 -23.055222 50.940783 -7.670898 0.000000 0.000000 0.000000 
0.005195 0.933780 0.014106 -4.086433 -5.313861 10.351735 6.348767 -0.685248 -22.613334 -0.982338 -0.050938 10.023136 7.589367 16.259528 10.769042 0.000000 0.000000 0.000000 -4.480318 1.758819 -21.325784 4.607447 -0.401285 3.705956 -4.293868 -14.911996 18.831823 0.000000 0.000000 0.000000 -3.831920 0.312116 28.469122 2.291883 -0.225760 -19.241119 1.114383 3.500492 23.612886 0.804398 1.813263 -35.758606 0.000000 0.000000 0.000000 -21.513511 -22.268371 11.477199 -52.856909 -44.765180 12.920145 23.970829 -47.363452 -7.381212 0.000000 0.000000 0.000000 12.341452 28.476019 13.175114 53.431254 47.390490 15.801392 -23.150822 51.828897 -7.858044 0.000000 0.000000 0.000000 
0.005696 0.933941 0.015174 -4.010707 -5.099838 10.627763 6.156512 -0.733657 -22.526650 -0.843196 -0.074623 9.366567 7.488172 16.116251 10.752673 0.000000 0.000000 0.000000 -4.775310 1.740262 -21.633102 4.858879 -0.433896 3.856635 -4.428551 -15.104662 18.931647 0.000000 0.000000 0.000000 -3.723202 0.268140 28.670579 2.252723 -0.207031 -19.333590 1.157543 3.215697 23.676286 0.611487 1.888038 -36.092810 0.000000 0.000000 0.000000 -21.447200 -22.296102 11.550997 -52.524960 -45.120468 12.978776 24.546662 -47.564329 -7.633638 0.000000 0.000000 0.000000 12.609926 28.674774 13.318415 53.661752 47.084146 15.709044 -22.887653 53.121280 -7.955683 0.000000 0.000000 0.000000 
0.006149 0.933891 0.015974 -3.928212 -4.807903 10.953104 5.975344 -0.786526 -22.580348 -0.722548 -0.094417 8.803808 7.355719 15.928769 10.698833 0.000000 0.000000 0.000000 -5.046694 1.731702 -22.096343 5.045780 -0.460572 4.177258 -4.619401 -15.370164 18.992918 0.000000 0.000000 0.000000 -3.624942 0.221955 28.870915 2.266240 -0.199953 -19.393639 1.123591 2.866942 23.659670 -0.052460 2.167828 -36.573786 0.000000 0.000000 0.000000 -21.260081 -22.380814 11.642321 -52.183711 -45.426419 13.013577 24.883195 -47.815496 -7.797890 0.000000 0.000000 0.000000 12.781169 28.966865 13.478381 53.525585 47.043854 15.617679 -23.185493 53.868122 -8.247271 0.000000 0.000000 0.000000 
0.006524 0.933630 0.016623 -3.848077 -4.522150 11.333144 5.750380 -0.849871 -22.809900 -0.503065 -0.133955 8.435617 7.233488 15.756930 10.618716 0.000000 0.000000 0.000000 -5.269408 1.739120 -22.715600 5.150264 -0.478157 4.654831 -4.822675 -15.652468 18.999162 0.000000 0.000000 0.000000 -3.553639 0.183574 29.059109 2.206960 -0.169258 -19.545474 1.100369 2.515017 23.693594 -0.524655 2.353546 -36.955762 0.000000 0.000000 0.000000 -20.957122 -22.422954 11.692364 -52.137556 -45.965231 13.284767 25.045523 -47.823148 -7.834280 0.000000 0.000000 0.000000 12.772511 29.044324 13.493003 54.187498 47.241699 15.987703 -23.378292 54.850309 -8.501952 0.000000 0.000000 0.000000 
0.006790 0.933485 0.017195 -3.779569 -4.478328 11.461728 5.701652 -0.864494 -22.896068 -0.577186 -0.119377 8.374311 7.225129 15.747162 10.569007 0.000000 0.000000 0.000000 -5.455268 1.737099 -23.057839 5.281433 -0.496673 5.069481 -4.886801 -15.742046 18.947849 0.000000 0.000000 0.000000 -3.669090 0.224642 29.539587 2.381526 -0.211622 -19.562994 0.970766 2.390969 23.482713 -0.804432 2.463501 -37.041589 0.000000 0.000000 0.000000 -21.263401 -22.432114 11.779690 -51.490284 -46.211377 13.177874 25.282491 -48.042938 -7.976601 0.000000 0.000000 0.000000 13.595718 29.301410 13.821750 53.463331 47.399793 15.767730 -23.298578 55.511020 -8.595368 0.000000 0.000000 0.000000 
